<svg xmlns="http://www.w3.org/2000/svg" viewBox="0 0 635.9 100" height="100">
    <g id="mocon-logo">
        <path d="M455 84.8h-4.5c-1.1 0-2.1-.2-2.1-1.9v-25c0-7.3-2.1-9.9-8-9.9-3.8 0-7 1.5-9.1 4.1.2 1.8.3 3.6.3 6.2v24.5c0 1.4-.6 1.9-2.1 1.9H425c-1.1 0-2.1-.2-2.1-1.9V57.9c0-7.2-2.4-9.9-8.7-9.9-5.8 0-8.3 2.6-8.3 8.7v26.2c0 1.4-.6 1.9-2.1 1.9h-4.5c-1.1 0-2.1-.2-2.1-1.9V43.3c0-1.2.5-1.7 1.7-1.7h3.1c1.2 0 1.7.4 1.9 1.5l.3 2.3c2.6-2.9 6.7-4.6 11.6-4.6 5.6 0 10 1.9 12.6 5.5 3.6-3.6 8.2-5.5 13.7-5.5 10.3 0 14.9 5.2 14.9 16.9V83c.1 1.3-.4 1.8-2 1.8zm27.7.8c-5.9 0-10.5-1.5-13.5-4.5-3.1-3.1-4.4-8-4.4-16.4v-3c0-8.4 1.3-13.3 4.4-16.4 3-3 7.5-4.5 13.5-4.5 5.9 0 10.5 1.5 13.5 4.5 3.1 3.1 4.4 8 4.4 16.4v3c0 8.4-1.3 13.3-4.4 16.4-3 3-7.6 4.5-13.5 4.5zm-9-21.6c0 5.4.4 8.4 1.4 10.5 1.2 2.6 3.6 3.9 7.7 3.9 4 0 6.5-1.2 7.7-3.9 1-2.1 1.4-5.2 1.4-10.5v-1.7c0-5.4-.4-8.4-1.4-10.5-1.2-2.6-3.6-3.9-7.7-3.9-4 0-6.5 1.2-7.7 3.9-1 2.1-1.4 5.2-1.4 10.5V64zm51.7 21.6c-5.6 0-10.1-1.4-12.7-3.8-3.5-3.3-4.9-8.3-4.9-17.3v-2.3c0-9 1.4-14 4.9-17.3 2.6-2.5 7.1-3.8 12.7-3.8 4.3 0 8.8.8 11.9 2.2.6.3 1.5.7 1.5 1.8 0 .2-.1.8-.5 2.1l-.5 1.8c-.3.9-.8 1.3-1.5 1.3-.5 0-1-.2-1.4-.4-2-.7-5.5-1.5-8.5-1.5-3.6 0-6.1.9-7.6 2.7-1.8 2.3-2.1 5.6-2.1 11.8v.9c0 6.2.3 9.5 2.1 11.8 1.5 1.8 4 2.7 7.6 2.7 3 0 6.5-.8 8.5-1.5.5-.2.9-.4 1.4-.4.7 0 1.2.4 1.5 1.3l.5 1.8c.4 1.3.4 1.9.4 2.1 0 1.1-.9 1.5-1.5 1.8-3 1.3-7.6 2.2-11.8 2.2zm36.9 0c-5.9 0-10.5-1.5-13.5-4.5-3.1-3.1-4.4-8-4.4-16.4v-3c0-8.4 1.3-13.3 4.4-16.4 3-3 7.5-4.5 13.5-4.5 5.9 0 10.5 1.5 13.5 4.5 3.1 3.1 4.4 8 4.4 16.4v3c0 8.4-1.3 13.3-4.4 16.4-3 3-7.6 4.5-13.5 4.5zm-9-21.6c0 5.4.4 8.4 1.4 10.5 1.2 2.6 3.6 3.9 7.7 3.9 4 0 6.5-1.2 7.7-3.9 1-2.1 1.4-5.2 1.4-10.5v-1.7c0-5.4-.4-8.4-1.4-10.5-1.2-2.6-3.6-3.9-7.7-3.9-4 0-6.5 1.2-7.7 3.9-1 2.1-1.4 5.2-1.4 10.5V64zm67.5 20.8h-4.5c-1.1 0-2.1-.2-2.1-1.9v-25c0-7.1-2.5-9.9-8.8-9.9-6.1 0-8.6 2.5-8.6 8.7v26.2c0 1.4-.6 1.9-2.1 1.9h-4.5c-1.1 0-2.1-.2-2.1-1.9V43.2c0-1.5.9-1.7 1.7-1.7h3c1.1 0 1.8.3 2 1.6l.3 2.2c2.7-3 6.9-4.6 12.3-4.6 10.6 0 15.4 5.4 15.4 17.5v24.7c.1 1.4-.5 1.9-2 1.9z"> </path>
        <path fill="#ED1C24" d="M498.6 17.7c-3.9-2.5-8.5-4.1-13.4-4.6-.2 0-.4-.2-.4-.4V.6c0-.2.2-.4.4-.4 1.3-.1 2.5-.2 3.8-.2 6.9 0 13.5 1.7 19.2 4.7.2.1.3.4.1.6l-9.2 12.3c-.1.2-.3.2-.5.1zm-18-5V1.4c0-.3-.2-.5-.5-.4-7.4 1.6-14 5.2-19.4 10.1-.2.1-.2.4 0 .6l4.8 6.1c.1.2.4.2.6.1 4.1-2.7 9-4.4 14.2-4.7.2-.2.3-.3.3-.5zM512 7.4l-9.6 12.7c-.1.2-.1.4.1.6 3.5 3.2 6.3 7.2 8.1 11.7.1.2.2.3.4.3h18.2c.3 0 .5-.2.4-.5-2.4-10.2-8.6-19-17-24.8-.2-.2-.5-.2-.6 0zm-63.1 25.2h5c.2 0 .3-.1.4-.3 1.7-4.5 4.4-8.4 7.9-11.5.2-.1.2-.4 0-.6l-4.3-5.5c-.2-.2-.5-.2-.6 0-4.2 4.9-7.2 10.9-8.8 17.4-.1.3.1.5.4.5z"> </path>
        <path d="M625 46.8c0-3.3 2.2-5.4 5.4-5.4s5.4 2.1 5.4 5.4c0 3.3-2.2 5.4-5.4 5.4s-5.4-2.1-5.4-5.4zm9.9 0c0-2.8-1.8-4.5-4.4-4.5s-4.4 1.7-4.4 4.5 1.8 4.5 4.4 4.5 4.4-1.7 4.4-4.5zm-4.6.6h-.9v2.3c0 .1 0 .2-.1.2h-.6c-.1 0-.1 0-.1-.2V44c0-.2.1-.2.3-.3.4-.1.8-.1 1.4-.1 1.2 0 2.3.4 2.3 1.8v.2c0 .6-.2 1.1-.5 1.3-.2.2-.4.3-.7.4l1.3 2.4c0 .1 0 .2-.1.2h-.7c-.1 0-.2 0-.2-.2l-1.4-2.3zm-.8-2.8v1.9h.7c.6 0 .9-.1 1.1-.3.2-.2.3-.5.3-.8v-.1c0-.7-.4-1-1.3-1h-.6c-.2.1-.2.2-.2.3z" class="register-mark"> </path>
    </g>
    <path id="separator" d="M355.6 17.8h1.4V100h-1.4z"> </path>
    <g id="ametek-logo">
        <path fill="#ED1C24" d="M8.5 68.9h17.1l-8.8 15.2H0l8.5-15.2z"/>
        <path d="M26.1 36.2l27.6 48H34.4l-18-31 9.7-17zm27.5 4.1v43.8h16V64.3l9.1 20.1h13.1l9.3-20.1v19.9h16V40.3H95.3L85.1 62.2l-10-21.9H53.6zm68.4 0v43.8h40.3V71.8h-24.1v-5.4h24.1V55.1h-24.1V52h24.1V40.3H122zm93.1 0v43.9h40.4V71.8h-24.2v-5.4h24.2V55.1h-24.2V52h24.2V40.3h-40.4zm-50-.1V52h15.3v32.1h16.1V52H212V40.2h-46.9zm94.7 0V84h16.8V71.7l1.8-2.2 8.7 14.6h20.2l-17.9-26.3 16-17.6h-17.9l-11 12v-12h-16.7z"> </path>
        <path d="M312.5 51.7c-3.1 0-5.6-2.5-5.6-5.6s2.5-5.6 5.6-5.6c3.1 0 5.6 2.5 5.6 5.6s-2.5 5.6-5.6 5.6zm0-10.4c-2.6 0-4.7 2.1-4.7 4.7s2.1 4.7 4.7 4.7 4.7-2.1 4.7-4.7-2.1-4.7-4.7-4.7zm-1.5 2.5h2c.4 0 1.1.1 1.1 1s-.6 1-1.2 1H311v-2zm0 2.7h2c1 0 1.1.6 1.1 1.1 0 .2 0 1.1.1 1.5h1V49c-.2-.1-.3-.3-.3-.6l-.1-1.1c0-.8-.4-1-.7-1.1.4-.2.8-.5.8-1.4 0-1.3-1-1.6-2-1.6h-2.8v6h.8v-2.7z" class="register-mark"> </path>
    </g>
</svg>
